HIERARCHY
ROOT Root
{
  OFFSET 0.0 0.0 0.0
  CHANNELS 6 Xposition Yposition Zposition Zrotation Yrotation Xrotation
  JOINT Hips
  {
    OFFSET 0.0 100.0 0.0
    CHANNELS 6 Xposition Yposition Zposition Zrotation Yrotation Xrotation
    JOINT Spine1
    {
      OFFSET 5.003913 -0.037094 -0.013727
      CHANNELS 3 Zrotation Yrotation Xrotation
      JOINT Spine2
      {
        OFFSET 7.125363 -1e-06 0.0
        CHANNELS 3 Zrotation Yrotation Xrotation
        JOINT Chest
        {
          OFFSET 7.594027 1e-06 0.0
          CHANNELS 3 Zrotation Yrotation Xrotation
          JOINT Neck1
          {
            OFFSET 26.313086 -0.460272 -0.181672
            CHANNELS 3 Zrotation Yrotation Xrotation
            JOINT Neck2
            {
              OFFSET 8.045911 0.0 0.0
              CHANNELS 3 Zrotation Yrotation Xrotation
              JOINT Head
              {
                OFFSET 6.432774 0.0 0.0
                CHANNELS 3 Zrotation Yrotation Xrotation
                JOINT HeadEnd
                {
                  OFFSET 16.169773 0.06451 0.00362
                  CHANNELS 3 Zrotation Yrotation Xrotation
                }
                JOINT Jaw
                {
                  OFFSET 0.108741 3.12938 0.002639
                  CHANNELS 3 Zrotation Yrotation Xrotation
                }
                JOINT LeftEye
                {
                  OFFSET 4.45173 8.166359 3.206392
                  CHANNELS 3 Zrotation Yrotation Xrotation
                }
                JOINT RightEye
                {
                  OFFSET 4.436895 8.135758 -3.222429
                  CHANNELS 3 Zrotation Yrotation Xrotation
                }
              }
            }
          }
          JOINT LeftShoulder
          {
            OFFSET 23.218927 5.195579 1.621656
            CHANNELS 3 Zrotation Yrotation Xrotation
            JOINT LeftArm
            {
              OFFSET 15.902118 2e-06 -2e-06
              CHANNELS 3 Zrotation Yrotation Xrotation
              JOINT LeftForeArm
              {
                OFFSET 28.739307 0.0 -1e-06
                CHANNELS 3 Zrotation Yrotation Xrotation
                JOINT LeftHand
                {
                  OFFSET 27.093981 -4e-06 0.0
                  CHANNELS 3 Zrotation Yrotation Xrotation
                  JOINT LeftHandThumb1
                  {
                    OFFSET 2.276781 3.380274 0.83384
                    CHANNELS 3 Zrotation Yrotation Xrotation
                    JOINT LeftHandThumb2
                    {
                      OFFSET 4.705309 -1e-06 -1e-06
                      CHANNELS 3 Zrotation Yrotation Xrotation
                      JOINT LeftHandThumb3
                      {
                        OFFSET 2.798515 0.0 3e-06
                        CHANNELS 3 Zrotation Yrotation Xrotation
                        JOINT LeftHandThumbEnd
                        {
                          OFFSET 3.180793 4e-06 -4e-06
                          CHANNELS 3 Zrotation Yrotation Xrotation
                        }
                      }
                    }
                  }
                  JOINT LeftHandIndex1
                  {
                    OFFSET 3.247786 2.352677 0.137192
                    CHANNELS 3 Zrotation Yrotation Xrotation
                    JOINT LeftHandIndex2
                    {
                      OFFSET 6.367095 1e-06 0.0
                      CHANNELS 3 Zrotation Yrotation Xrotation
                      JOINT LeftHandIndex3
                      {
                        OFFSET 3.662364 0.0 0.0
                        CHANNELS 3 Zrotation Yrotation Xrotation
                        JOINT LeftHandIndex4
                        {
                          OFFSET 2.329242 4e-06 -4e-06
                          CHANNELS 3 Zrotation Yrotation Xrotation
                          JOINT LeftHandIndexEnd
                          {
                            OFFSET 2.767823 1e-06 0.0
                            CHANNELS 3 Zrotation Yrotation Xrotation
                          }
                        }
                      }
                    }
                  }
                  JOINT LeftHandMiddle1
                  {
                    OFFSET 3.163612 0.945023 -0.406112
                    CHANNELS 3 Zrotation Yrotation Xrotation
                    JOINT LeftHandMiddle2
                    {
                      OFFSET 6.276789 3e-06 0.0
                      CHANNELS 3 Zrotation Yrotation Xrotation
                      JOINT LeftHandMiddle3
                      {
                        OFFSET 4.35652 -1e-06 4e-06
                        CHANNELS 3 Zrotation Yrotation Xrotation
                        JOINT LeftHandMiddle4
                        {
                          OFFSET 2.996877 0.0 8e-06
                          CHANNELS 3 Zrotation Yrotation Xrotation
                          JOINT LeftHandMiddleEnd
                          {
                            OFFSET 2.323256 3e-06 -4e-06
                            CHANNELS 3 Zrotation Yrotation Xrotation
                          }
                        }
                      }
                    }
                  }
                  JOINT LeftHandRing1
                  {
                    OFFSET 2.882606 -0.309162 0.107445
                    CHANNELS 3 Zrotation Yrotation Xrotation
                    JOINT LeftHandRing2
                    {
                      OFFSET 6.033198 0.0 4e-06
                      CHANNELS 3 Zrotation Yrotation Xrotation
                      JOINT LeftHandRing3
                      {
                        OFFSET 4.350578 3e-06 0.0
                        CHANNELS 3 Zrotation Yrotation Xrotation
                        JOINT LeftHandRing4
                        {
                          OFFSET 2.651321 2e-06 -7e-06
                          CHANNELS 3 Zrotation Yrotation Xrotation
                          JOINT LeftHandRingEnd
                          {
                            OFFSET 1.937663 1e-06 -4e-06
                            CHANNELS 3 Zrotation Yrotation Xrotation
                          }
                        }
                      }
                    }
                  }
                  JOINT LeftHandPinky1
                  {
                    OFFSET 2.865315 -1.525436 0.575687
                    CHANNELS 3 Zrotation Yrotation Xrotation
                    JOINT LeftHandPinky2
                    {
                      OFFSET 5.54936 1e-06 -8e-06
                      CHANNELS 3 Zrotation Yrotation Xrotation
                      JOINT LeftHandPinky3
                      {
                        OFFSET 3.070974 0.0 -4e-06
                        CHANNELS 3 Zrotation Yrotation Xrotation
                        JOINT LeftHandPinky4
                        {
                          OFFSET 1.549672 1e-06 0.0
                          CHANNELS 3 Zrotation Yrotation Xrotation
                          JOINT LeftHandPinkyEnd
                          {
                            OFFSET 1.952123 0.0 0.0
                            CHANNELS 3 Zrotation Yrotation Xrotation
                          }
                        }
                      }
                    }
                  }
                }
              }
            }
          }
          JOINT RightShoulder
          {
            OFFSET 23.161716 5.296122 -1.380114
            CHANNELS 3 Zrotation Yrotation Xrotation
            JOINT RightArm
            {
              OFFSET -16.027195 -2e-06 1.1e-05
              CHANNELS 3 Zrotation Yrotation Xrotation
              JOINT RightForeArm
              {
                OFFSET -28.736639 4e-06 2e-06
                CHANNELS 3 Zrotation Yrotation Xrotation
                JOINT RightHand
                {
                  OFFSET -27.133619 6e-06 0.0
                  CHANNELS 3 Zrotation Yrotation Xrotation
                  JOINT RightHandThumb1
                  {
                    OFFSET -2.274328 -3.351035 -0.83067
                    CHANNELS 3 Zrotation Yrotation Xrotation
                    JOINT RightHandThumb2
                    {
                      OFFSET -4.703594 -3e-06 2e-06
                      CHANNELS 3 Zrotation Yrotation Xrotation
                      JOINT RightHandThumb3
                      {
                        OFFSET -2.794935 -4e-06 -3e-06
                        CHANNELS 3 Zrotation Yrotation Xrotation
                        JOINT RightHandThumbEnd
                        {
                          OFFSET -3.183852 4e-06 1e-06
                          CHANNELS 3 Zrotation Yrotation Xrotation
                        }
                      }
                    }
                  }
                  JOINT RightHandIndex1
                  {
                    OFFSET -3.253496 -2.33755 -0.127667
                    CHANNELS 3 Zrotation Yrotation Xrotation
                    JOINT RightHandIndex2
                    {
                      OFFSET -6.344434 0.0 0.0
                      CHANNELS 3 Zrotation Yrotation Xrotation
                      JOINT RightHandIndex3
                      {
                        OFFSET -3.654871 0.0 -8e-06
                        CHANNELS 3 Zrotation Yrotation Xrotation
                        JOINT RightHandIndex4
                        {
                          OFFSET -2.327586 -1e-06 0.0
                          CHANNELS 3 Zrotation Yrotation Xrotation
                          JOINT RightHandIndexEnd
                          {
                            OFFSET -2.770001 3e-06 8e-06
                            CHANNELS 3 Zrotation Yrotation Xrotation
                          }
                        }
                      }
                    }
                  }
                  JOINT RightHandMiddle1
                  {
                    OFFSET -3.168223 -0.944764 0.411762
                    CHANNELS 3 Zrotation Yrotation Xrotation
                    JOINT RightHandMiddle2
                    {
                      OFFSET -6.266691 -1e-06 -4e-06
                      CHANNELS 3 Zrotation Yrotation Xrotation
                      JOINT RightHandMiddle3
                      {
                        OFFSET -4.348901 0.0 0.0
                        CHANNELS 3 Zrotation Yrotation Xrotation
                        JOINT RightHandMiddle4
                        {
                          OFFSET -3.00024 2e-06 -4e-06
                          CHANNELS 3 Zrotation Yrotation Xrotation
                          JOINT RightHandMiddleEnd
                          {
                            OFFSET -2.321477 -4e-06 -4e-06
                            CHANNELS 3 Zrotation Yrotation Xrotation
                          }
                        }
                      }
                    }
                  }
                  JOINT RightHandRing1
                  {
                    OFFSET -2.885654 0.293261 -0.119232
                    CHANNELS 3 Zrotation Yrotation Xrotation
                    JOINT RightHandRing2
                    {
                      OFFSET -6.032835 -1e-06 -4e-06
                      CHANNELS 3 Zrotation Yrotation Xrotation
                      JOINT RightHandRing3
                      {
                        OFFSET -4.33881 0.0 -4e-06
                        CHANNELS 3 Zrotation Yrotation Xrotation
                        JOINT RightHandRing4
                        {
                          OFFSET -2.654903 -4e-06 -4e-06
                          CHANNELS 3 Zrotation Yrotation Xrotation
                          JOINT RightHandRingEnd
                          {
                            OFFSET -1.935122 0.0 4e-06
                            CHANNELS 3 Zrotation Yrotation Xrotation
                          }
                        }
                      }
                    }
                  }
                  JOINT RightHandPinky1
                  {
                    OFFSET -2.866241 1.503904 -0.60527
                    CHANNELS 3 Zrotation Yrotation Xrotation
                    JOINT RightHandPinky2
                    {
                      OFFSET -5.553177 -2e-06 0.0
                      CHANNELS 3 Zrotation Yrotation Xrotation
                      JOINT RightHandPinky3
                      {
                        OFFSET -3.062664 -1e-06 -4e-06
                        CHANNELS 3 Zrotation Yrotation Xrotation
                        JOINT RightHandPinky4
                        {
                          OFFSET -1.546529 2e-06 4e-06
                          CHANNELS 3 Zrotation Yrotation Xrotation
                          JOINT RightHandPinkyEnd
                          {
                            OFFSET -1.952341 0.0 -4e-06
                            CHANNELS 3 Zrotation Yrotation Xrotation
                          }
                        }
                      }
                    }
                  }
                }
              }
            }
          }
        }
      }
    }
    JOINT LeftLeg
    {
      OFFSET -8.443107 2.567604 10.043214
      CHANNELS 3 Zrotation Yrotation Xrotation
      JOINT LeftShin
      {
        OFFSET 43.229198 1e-06 -1e-06
        CHANNELS 3 Zrotation Yrotation Xrotation
        JOINT LeftFoot
        {
          OFFSET 42.298611 1e-06 1e-06
          CHANNELS 3 Zrotation Yrotation Xrotation
          JOINT LeftToeBase
          {
            OFFSET 14.165858 1e-06 0.0
            CHANNELS 3 Zrotation Yrotation Xrotation
            JOINT LeftToeEnd
            {
              OFFSET 6.7141 -0.234461 0.0
              CHANNELS 3 Zrotation Yrotation Xrotation
            }
          }
        }
      }
    }
    JOINT RightLeg
    {
      OFFSET -8.303923 2.592729 -10.047278
      CHANNELS 3 Zrotation Yrotation Xrotation
      JOINT RightShin
      {
        OFFSET -43.369682 0.0 1e-06
        CHANNELS 3 Zrotation Yrotation Xrotation
        JOINT RightFoot
        {
          OFFSET -42.260784 4e-06 2e-06
          CHANNELS 3 Zrotation Yrotation Xrotation
          JOINT RightToeBase
          {
            OFFSET -14.222245 -2e-06 -1e-06
            CHANNELS 3 Zrotation Yrotation Xrotation
            JOINT RightToeEnd
            {
              OFFSET -6.660062 0.232574 -2e-06
              CHANNELS 3 Zrotation Yrotation Xrotation
            }
          }
        }
      }
    }
  }
}
MOTION
Frames: 4
Frame Time: 0.03333333333333333
0.0 0.0 0.0 0.0 -0.0 0.0 0.311395 48.873692 6.115887 94.976562 -54.038452 88.069916 15.621608 0.798424 -0.458793 -3.992204 -0.161088 -0.589494 20.501904 0.441013 -2.905756 25.556217 -4.969569 2.108902 -2.677916 0.402422 -1.271529 -18.077753 -1.717866 -2.299856 6e-06 -0.0 -0.0 -0.241745 0.123977 0.003488 -0.236384 0.339573 0.005985 -0.241348 -0.08677 0.003501 -20.090368 -72.043785 22.165154 87.198166 -2.08018 -24.590639 5.576035 -1.291229 -0.039605 31.957109 83.910217 39.821617 17.636627 -26.322733 52.41119 -19.466665 -14.395597 29.410389 0.0 -8.774822 -2e-06 15.724556 -17.477156 6.322364 -0.609776 -1.795654 -3.889327 -4.807089 -11.046812 -2.93785 4e-06 -20.976021 -0.0 -5.019971 -25.033558 -4.03188 6e-06 -1e-06 0.0 -10.634534 -5.686971 -3.565588 10.573274 -17.922953 -3.1139 2e-06 -13.821209 1e-06 -0.501779 -31.181511 -4.027017 -10.651168 -58.681839 6.755215 -13.982714 -7.150199 -2.875041 13.772731 -8.401493 -3.218242 0.347733 -34.211559 0.771655 -0.963029 -17.733374 2.621019 0.0 -1e-06 0.0 -17.34642 -20.095221 -4.20178 21.757563 -1.638372 3.866428 1e-06 -6.338825 1e-06 -1.69759 -22.591747 -6.194007 -0.0 -4e-06 -2e-06 165.199692 -68.549736 17.164827 86.114349 -6.287348 -35.192318 6.063438 -0.50873 -0.01848 70.256088 72.457176 72.648895 22.182119 -20.375895 49.933323 -16.701813 -16.74353 28.476532 -2e-06 -12.690602 -1e-06 16.407452 -16.801805 2.435536 -0.10592 -1.513857 -4.275882 -5.039041 -5.61287 -2.953557 4e-06 -11.020523 -2e-06 -6.111298 -15.895334 -3.840471 -0.0 -0.0 -0.0 -10.283371 -5.680288 -4.341839 11.028294 -11.302406 -2.372632 -1.384269 -14.238579 -6.320121 -0.625439 -26.924191 -3.827601 -4.458074 -48.72081 -4.008537 -13.708527 -7.363477 -3.72094 18.141148 -14.052739 -3.242672 6e-06 -18.787268 -2e-06 -0.429712 -8.456047 2.555504 -0.0 2e-06 0.0 -15.923538 -20.094484 -5.473585 30.419218 -7.190827 1.735927 2e-06 -8.162921 0.0 -1.861903 -22.861469 -6.167942 -0.0 -3e-06 -1e-06 127.043709 -1.657889 5.358263 107.420082 -0.103367 0.284506 -73.26107 20.261076 -5.628939 -18.766872 1.445158 1.72219 -0.999998 0.0 -1e-06 -55.768963 -9.26653 -0.976799 113.299759 -0.784045 -0.036785 -76.918892 0.426232 0.171105 -19.793951 0.838593 1.622963 -1.000002 0.0 0.0 
0.0 0.0 0.0 0.0 -0.0 0.0 0.547283 48.94696 6.170819 94.728447 -53.923779 88.211929 15.614491 0.922894 -0.432359 -4.069017 -0.082008 -0.511202 20.653725 0.443982 -2.736704 25.614294 -5.09449 1.94754 -2.677622 0.407422 -1.288167 -17.919767 -1.717633 -2.373428 6e-06 -0.0 -0.0 -0.246903 0.073215 -1e-05 -0.205791 0.286166 0.001353 -0.218147 -0.131511 -0.001613 -19.724863 -72.226234 22.056383 87.415077 -1.971418 -25.314529 5.376729 -1.197883 -0.035961 38.095455 83.124168 45.388058 17.636629 -26.322729 52.41119 -19.466661 -14.395596 29.410393 0.0 -8.774821 -3e-06 15.744313 -17.594028 6.268974 -0.609776 -1.795653 -3.889328 -4.80709 -11.046809 -2.93785 4e-06 -20.976021 -1e-06 -5.01997 -25.03356 -4.031881 6e-06 -1e-06 1e-06 -10.634533 -5.68697 -3.565588 10.573272 -17.922947 -3.1139 3e-06 -13.821205 0.0 -0.501777 -31.181498 -4.027017 -10.60751 -58.848705 6.7005 -13.982714 -7.150198 -2.875044 13.772729 -8.401493 -3.218242 0.347733 -34.211544 0.771654 -0.963028 -17.733368 2.621019 0.0 -2e-06 0.0 -17.346416 -20.095217 -4.201784 21.757557 -1.638372 3.866429 1e-06 -6.338823 1e-06 -1.697588 -22.591747 -6.194008 -0.0 -5e-06 -2e-06 165.305267 -68.443344 17.275024 86.067368 -6.286164 -35.255898 5.771537 -0.396023 -0.011828 70.088982 72.163597 72.307213 22.182119 -20.375896 49.933327 -16.701811 -16.743528 28.47653 -4e-06 -12.690601 -1e-06 16.226835 -16.718819 2.508724 -0.105919 -1.513856 -4.275882 -5.039042 -5.612873 -2.953557 3e-06 -11.020525 -2e-06 -6.111297 -15.89533 -3.840471 0.0 -2e-06 0.0 -10.28337 -5.680288 -4.341839 11.028293 -11.302406 -2.372633 -1.384269 -14.238583 -6.320122 -0.625439 -26.924192 -3.827601 -4.490182 -48.766144 -3.905786 -13.708525 -7.363477 -3.72094 18.141148 -14.052739 -3.242674 6e-06 -18.78727 -2e-06 -0.429712 -8.456045 2.555504 0.0 -2e-06 0.0 -15.923536 -20.094484 -5.473584 30.41921 -7.190827 1.735926 2e-06 -8.162922 -0.0 -1.861903 -22.861469 -6.167942 1e-06 -2e-06 -1e-06 127.220062 -1.459 5.329232 107.353722 -0.145568 0.268204 -73.255814 20.047049 -5.502541 -18.488527 1.465154 1.684957 -0.999999 0.0 -1e-06 -55.596355 -9.371459 -0.975877 113.082153 -0.825834 -0.056109 -76.634827 0.581472 0.183636 -19.433414 0.820904 1.637409 -1.000002 0.0 0.0 
0.0 0.0 0.0 0.0 -0.0 0.0 0.733587 48.961071 6.158635 94.629807 -53.844776 88.244995 15.566556 0.973369 -0.402657 -4.122361 0.011533 -0.415588 20.785955 0.425473 -2.61596 25.680378 -5.159143 1.81859 -2.675558 0.362131 -1.308675 -17.886421 -1.770401 -2.433632 6e-06 -0.0 -0.0 -0.240519 0.045384 -0.000638 -0.214344 0.251744 -0.005885 -0.221987 -0.150847 0.000463 -19.14686 -72.206299 21.706995 87.530624 -1.85626 -25.706091 5.353013 -1.107483 -0.032067 39.157742 82.582359 45.997078 17.636625 -26.322735 52.411205 -19.466658 -14.3956 29.410395 -2e-06 -8.77482 -1e-06 15.776448 -17.658066 6.196321 -0.609776 -1.795653 -3.889328 -4.807087 -11.04681 -2.93785 4e-06 -20.976019 0.0 -5.019968 -25.033552 -4.03188 5e-06 -0.0 1e-06 -10.634533 -5.68697 -3.565587 10.573271 -17.922951 -3.113901 2e-06 -13.821209 1e-06 -0.501778 -31.181505 -4.027014 -10.513372 -58.904118 6.614318 -13.982712 -7.150198 -2.875043 13.772727 -8.401491 -3.218242 0.347733 -34.211555 0.771656 -0.963029 -17.73337 2.62102 0.0 -2e-06 0.0 -17.346413 -20.095215 -4.201781 21.757555 -1.638375 3.866426 1e-06 -6.338824 1e-06 -1.697589 -22.591742 -6.194005 -0.0 -4e-06 -2e-06 165.626801 -68.351662 17.174738 85.832642 -6.290817 -35.266907 5.654051 -0.330848 -0.010334 70.568474 72.002502 72.903854 22.182116 -20.375895 49.933319 -16.701813 -16.743528 28.476528 -4e-06 -12.690598 -1e-06 16.193541 -16.613497 2.532836 -0.105919 -1.513855 -4.275881 -5.039041 -5.612872 -2.953557 4e-06 -11.020524 -2e-06 -6.111298 -15.89533 -3.840471 -0.0 -1e-06 -0.0 -10.28337 -5.680286 -4.341839 11.028296 -11.302405 -2.372633 -1.384269 -14.238578 -6.320121 -0.625437 -26.924189 -3.827601 -4.476132 -48.77573 -3.856195 -13.708525 -7.363474 -3.720939 18.141148 -14.052739 -3.242674 7e-06 -18.787266 -1e-06 -0.429712 -8.456043 2.555504 0.0 -1e-06 -0.0 -15.923536 -20.094481 -5.473586 30.41921 -7.190827 1.735926 3e-06 -8.162921 -0.0 -1.861902 -22.861469 -6.167941 -0.0 -3e-06 -1e-06 127.300194 -1.269584 5.279519 107.407059 -0.159596 0.265382 -73.329803 19.837452 -5.431335 -18.4797 1.466804 1.668164 -0.999998 0.0 -0.0 -55.540527 -9.464319 -0.869945 113.045044 -0.844309 -0.042694 -76.510956 0.855696 0.10005 -19.139427 0.809338 1.647144 -1.0 0.0 0.0 
0.0 0.0 0.0 0.0 -0.0 0.0 0.85693 48.94392 6.098501 94.565544 -53.875767 88.326248 15.502791 1.000404 -0.37933 -4.16402 0.057088 -0.354615 20.809481 0.473087 -2.570572 25.71682 -5.202293 1.737626 -2.668026 0.330011 -1.333706 -17.912548 -1.797792 -2.433967 6e-06 -0.0 -0.0 -0.236821 0.029683 -0.00119 -0.254894 0.233225 -0.018084 -0.252 -0.164133 0.00896 -18.7528 -72.130692 21.44001 87.589401 -1.790778 -25.98465 5.41143 -1.055828 -0.031943 39.379211 82.248581 46.218792 17.636631 -26.322729 52.411198 -19.466663 -14.395596 29.410393 -1e-06 -8.774822 -2e-06 15.750445 -17.649456 6.176778 -0.609776 -1.795654 -3.889327 -4.80709 -11.046811 -2.93785 4e-06 -20.976019 -1e-06 -5.019971 -25.033562 -4.031882 6e-06 0.0 1e-06 -10.634535 -5.686971 -3.565588 10.573274 -17.922955 -3.1139 2e-06 -13.821212 0.0 -0.501778 -31.181507 -4.027017 -10.396132 -58.908184 6.481982 -13.982714 -7.150199 -2.875042 13.772729 -8.401491 -3.218241 0.347732 -34.211555 0.771654 -0.963029 -17.73337 2.621019 0.0 -1e-06 -0.0 -17.346422 -20.095221 -4.20178 21.757557 -1.638371 3.86643 1e-06 -6.338824 0.0 -1.69759 -22.591747 -6.194008 0.0 -3e-06 -2e-06 165.773865 -68.274399 17.107651 85.606079 -6.441143 -35.198269 5.751957 -0.29242 -0.01155 71.157822 71.96698 73.796074 22.182114 -20.375895 49.933319 -16.701809 -16.743528 28.476528 -4e-06 -12.690599 -0.0 16.222521 -16.542999 2.56324 -0.105919 -1.513857 -4.275881 -5.039041 -5.612871 -2.953557 4e-06 -11.020525 -2e-06 -6.111297 -15.895334 -3.840471 -0.0 -1e-06 0.0 -10.283369 -5.680289 -4.341839 11.028294 -11.302406 -2.372633 -1.384269 -14.238579 -6.320121 -0.625438 -26.924191 -3.8276 -4.449586 -48.866871 -3.767101 -13.708524 -7.363478 -3.72094 18.141148 -14.052739 -3.242674 6e-06 -18.78727 -2e-06 -0.429712 -8.456045 2.555503 0.0 -2e-06 0.0 -15.923532 -20.094482 -5.473584 30.41921 -7.190827 1.735924 1e-06 -8.162924 -1e-06 -1.861902 -22.861471 -6.167942 -0.0 -3e-06 -1e-06 127.195007 -1.094002 5.314214 107.568283 -0.150668 0.271977 -73.6157 19.70643 -5.426561 -18.685682 1.460792 1.666738 -0.999998 -1e-06 0.0 -55.634323 -9.585835 -0.77056 113.131073 -0.804587 -0.019571 -76.590843 1.027636 -0.077387 -19.141951 0.809708 1.65236 -1.000002 -0.0 0.0 
